<mxfile host="Electron" agent="Mozilla/5.0 (X11; Linux x86_64) AppleWebKit/537.36 (KHTML, like Gecko) draw.io/24.7.17 Chrome/128.0.6613.36 Electron/32.0.1 Safari/537.36" version="24.7.17">
  <diagram id="C5RBs43oDa-KdzZeNtuy" name="Page-1">
    <mxGraphModel dx="1434" dy="839" grid="1" gridSize="10" guides="1" tooltips="1" connect="1" arrows="1" fold="1" page="1" pageScale="1" pageWidth="827" pageHeight="1169" math="0" shadow="0">
      <root>
        <mxCell id="WIyWlLk6GJQsqaUBKTNV-0" />
        <mxCell id="WIyWlLk6GJQsqaUBKTNV-1" parent="WIyWlLk6GJQsqaUBKTNV-0" />
        <mxCell id="vh6xx3KwmAW9PA3KFlbd-1" style="edgeStyle=orthogonalEdgeStyle;rounded=0;orthogonalLoop=1;jettySize=auto;html=1;entryX=0.5;entryY=0;entryDx=0;entryDy=0;strokeWidth=2;" parent="WIyWlLk6GJQsqaUBKTNV-1" source="WIyWlLk6GJQsqaUBKTNV-3" target="vh6xx3KwmAW9PA3KFlbd-0" edge="1">
          <mxGeometry relative="1" as="geometry" />
        </mxCell>
        <mxCell id="WIyWlLk6GJQsqaUBKTNV-3" value="start" style="rounded=1;whiteSpace=wrap;html=1;fontSize=12;glass=0;strokeWidth=2;shadow=0;" parent="WIyWlLk6GJQsqaUBKTNV-1" vertex="1">
          <mxGeometry x="367.5" y="120" width="120" height="40" as="geometry" />
        </mxCell>
        <mxCell id="NejKWs3AC0AdlwhUtmeb-70" value="&lt;h1&gt;_which&lt;/h1&gt;" style="rounded=0;whiteSpace=wrap;html=1;" parent="WIyWlLk6GJQsqaUBKTNV-1" vertex="1">
          <mxGeometry x="40" y="40" width="760" height="40" as="geometry" />
        </mxCell>
        <mxCell id="vh6xx3KwmAW9PA3KFlbd-0" value="input =&amp;nbsp;&lt;div&gt;program name&lt;/div&gt;" style="shape=parallelogram;perimeter=parallelogramPerimeter;whiteSpace=wrap;html=1;fixedSize=1;strokeWidth=2;" parent="WIyWlLk6GJQsqaUBKTNV-1" vertex="1">
          <mxGeometry x="367.5" y="200" width="120" height="60" as="geometry" />
        </mxCell>
        <mxCell id="vh6xx3KwmAW9PA3KFlbd-15" style="edgeStyle=orthogonalEdgeStyle;rounded=0;orthogonalLoop=1;jettySize=auto;html=1;strokeWidth=2;entryX=0;entryY=0.5;entryDx=0;entryDy=0;" parent="WIyWlLk6GJQsqaUBKTNV-1" source="vh6xx3KwmAW9PA3KFlbd-7" target="vh6xx3KwmAW9PA3KFlbd-17" edge="1">
          <mxGeometry relative="1" as="geometry">
            <mxPoint x="585" y="335" as="targetPoint" />
          </mxGeometry>
        </mxCell>
        <mxCell id="vh6xx3KwmAW9PA3KFlbd-16" value="&amp;nbsp;yes&amp;nbsp;" style="edgeLabel;html=1;align=center;verticalAlign=middle;resizable=0;points=[];" parent="vh6xx3KwmAW9PA3KFlbd-15" vertex="1" connectable="0">
          <mxGeometry x="-0.4299" y="1" relative="1" as="geometry">
            <mxPoint x="8" y="1" as="offset" />
          </mxGeometry>
        </mxCell>
        <mxCell id="vh6xx3KwmAW9PA3KFlbd-18" style="edgeStyle=orthogonalEdgeStyle;rounded=0;orthogonalLoop=1;jettySize=auto;html=1;strokeWidth=2;entryX=0.5;entryY=0;entryDx=0;entryDy=0;" parent="WIyWlLk6GJQsqaUBKTNV-1" source="vh6xx3KwmAW9PA3KFlbd-7" target="vh6xx3KwmAW9PA3KFlbd-19" edge="1">
          <mxGeometry relative="1" as="geometry">
            <mxPoint x="255" y="430" as="targetPoint" />
            <Array as="points">
              <mxPoint x="260" y="335" />
            </Array>
          </mxGeometry>
        </mxCell>
        <mxCell id="vh6xx3KwmAW9PA3KFlbd-20" value="&amp;nbsp;no&amp;nbsp;" style="edgeLabel;html=1;align=center;verticalAlign=middle;resizable=0;points=[];" parent="vh6xx3KwmAW9PA3KFlbd-18" vertex="1" connectable="0">
          <mxGeometry x="-0.3974" relative="1" as="geometry">
            <mxPoint as="offset" />
          </mxGeometry>
        </mxCell>
        <mxCell id="vh6xx3KwmAW9PA3KFlbd-7" value="The input is an&amp;nbsp;&lt;div&gt;absolute valid executable path&lt;/div&gt;&lt;div&gt;(verified using &lt;b&gt;&lt;i&gt;stat&lt;/i&gt;&lt;/b&gt;)&lt;/div&gt;" style="strokeWidth=2;html=1;shape=mxgraph.flowchart.decision;whiteSpace=wrap;" parent="WIyWlLk6GJQsqaUBKTNV-1" vertex="1">
          <mxGeometry x="313.75" y="290" width="227.5" height="90" as="geometry" />
        </mxCell>
        <mxCell id="vh6xx3KwmAW9PA3KFlbd-8" style="edgeStyle=orthogonalEdgeStyle;rounded=0;orthogonalLoop=1;jettySize=auto;html=1;entryX=0.5;entryY=0;entryDx=0;entryDy=0;entryPerimeter=0;strokeWidth=2;" parent="WIyWlLk6GJQsqaUBKTNV-1" source="vh6xx3KwmAW9PA3KFlbd-0" target="vh6xx3KwmAW9PA3KFlbd-7" edge="1">
          <mxGeometry relative="1" as="geometry" />
        </mxCell>
        <mxCell id="vh6xx3KwmAW9PA3KFlbd-51" style="edgeStyle=orthogonalEdgeStyle;rounded=0;orthogonalLoop=1;jettySize=auto;html=1;entryX=0.5;entryY=0;entryDx=0;entryDy=0;strokeWidth=2;" parent="WIyWlLk6GJQsqaUBKTNV-1" source="vh6xx3KwmAW9PA3KFlbd-17" target="vh6xx3KwmAW9PA3KFlbd-52" edge="1">
          <mxGeometry relative="1" as="geometry">
            <mxPoint x="670" y="520" as="targetPoint" />
          </mxGeometry>
        </mxCell>
        <mxCell id="vh6xx3KwmAW9PA3KFlbd-17" value="return full path&lt;div&gt;return code 0&lt;/div&gt;" style="shape=parallelogram;perimeter=parallelogramPerimeter;whiteSpace=wrap;html=1;fixedSize=1;strokeWidth=2;" parent="WIyWlLk6GJQsqaUBKTNV-1" vertex="1">
          <mxGeometry x="610" y="305" width="120" height="60" as="geometry" />
        </mxCell>
        <mxCell id="vh6xx3KwmAW9PA3KFlbd-19" value="Generate a linked list of executable paths&lt;div&gt;based on the PATH environment variable&lt;/div&gt;" style="shape=process;whiteSpace=wrap;html=1;backgroundOutline=1;strokeWidth=2;" parent="WIyWlLk6GJQsqaUBKTNV-1" vertex="1">
          <mxGeometry x="175" y="390" width="170" height="70" as="geometry" />
        </mxCell>
        <mxCell id="vh6xx3KwmAW9PA3KFlbd-27" value="no" style="edgeStyle=orthogonalEdgeStyle;rounded=0;orthogonalLoop=1;jettySize=auto;html=1;entryX=0.5;entryY=0;entryDx=0;entryDy=0;strokeWidth=2;" parent="WIyWlLk6GJQsqaUBKTNV-1" source="vh6xx3KwmAW9PA3KFlbd-24" target="vh6xx3KwmAW9PA3KFlbd-26" edge="1">
          <mxGeometry x="-0.2" relative="1" as="geometry">
            <mxPoint as="offset" />
          </mxGeometry>
        </mxCell>
        <mxCell id="vh6xx3KwmAW9PA3KFlbd-50" value="&amp;nbsp;yes&amp;nbsp;" style="edgeStyle=orthogonalEdgeStyle;rounded=0;orthogonalLoop=1;jettySize=auto;html=1;entryX=0;entryY=0.5;entryDx=0;entryDy=0;strokeWidth=2;" parent="WIyWlLk6GJQsqaUBKTNV-1" source="vh6xx3KwmAW9PA3KFlbd-24" target="vh6xx3KwmAW9PA3KFlbd-49" edge="1">
          <mxGeometry relative="1" as="geometry" />
        </mxCell>
        <mxCell id="vh6xx3KwmAW9PA3KFlbd-24" value="Have we processed&amp;nbsp;&lt;div&gt;all paths&amp;nbsp;&lt;/div&gt;&lt;div&gt;in the linked list?&lt;br&gt;&lt;/div&gt;" style="strokeWidth=2;html=1;shape=mxgraph.flowchart.decision;whiteSpace=wrap;" parent="WIyWlLk6GJQsqaUBKTNV-1" vertex="1">
          <mxGeometry x="170" y="510" width="180" height="100" as="geometry" />
        </mxCell>
        <mxCell id="vh6xx3KwmAW9PA3KFlbd-25" style="edgeStyle=orthogonalEdgeStyle;rounded=0;orthogonalLoop=1;jettySize=auto;html=1;entryX=0.5;entryY=0;entryDx=0;entryDy=0;entryPerimeter=0;strokeWidth=2;" parent="WIyWlLk6GJQsqaUBKTNV-1" source="vh6xx3KwmAW9PA3KFlbd-19" target="vh6xx3KwmAW9PA3KFlbd-24" edge="1">
          <mxGeometry relative="1" as="geometry" />
        </mxCell>
        <mxCell id="vh6xx3KwmAW9PA3KFlbd-26" value="concatenate the program name with the path&lt;div&gt;(ex : /bin + / + ls = /bin/ls)&lt;/div&gt;" style="rounded=0;whiteSpace=wrap;html=1;strokeWidth=2;" parent="WIyWlLk6GJQsqaUBKTNV-1" vertex="1">
          <mxGeometry x="180" y="660" width="160" height="50" as="geometry" />
        </mxCell>
        <mxCell id="vh6xx3KwmAW9PA3KFlbd-41" value="&amp;nbsp;yes&amp;nbsp;" style="edgeStyle=orthogonalEdgeStyle;rounded=0;orthogonalLoop=1;jettySize=auto;html=1;entryX=0;entryY=0.5;entryDx=0;entryDy=0;strokeWidth=2;" parent="WIyWlLk6GJQsqaUBKTNV-1" source="vh6xx3KwmAW9PA3KFlbd-34" target="vh6xx3KwmAW9PA3KFlbd-40" edge="1">
          <mxGeometry x="-0.1348" relative="1" as="geometry">
            <mxPoint as="offset" />
          </mxGeometry>
        </mxCell>
        <mxCell id="vh6xx3KwmAW9PA3KFlbd-46" value="&amp;nbsp;no&amp;nbsp;" style="edgeStyle=orthogonalEdgeStyle;rounded=0;orthogonalLoop=1;jettySize=auto;html=1;entryX=0.5;entryY=1;entryDx=0;entryDy=0;strokeWidth=2;" parent="WIyWlLk6GJQsqaUBKTNV-1" source="vh6xx3KwmAW9PA3KFlbd-34" target="vh6xx3KwmAW9PA3KFlbd-42" edge="1">
          <mxGeometry x="-0.5774" relative="1" as="geometry">
            <mxPoint as="offset" />
          </mxGeometry>
        </mxCell>
        <mxCell id="vh6xx3KwmAW9PA3KFlbd-34" value="The concatenated&lt;div&gt;path is an&amp;nbsp;&lt;span style=&quot;background-color: initial;&quot;&gt;absolute&lt;/span&gt;&lt;/div&gt;&lt;div&gt;&lt;span style=&quot;background-color: initial;&quot;&gt;valid executable path&lt;/span&gt;&lt;div&gt;(verified using &lt;b&gt;&lt;i&gt;stat&lt;/i&gt;&lt;/b&gt;)&lt;/div&gt;&lt;/div&gt;" style="strokeWidth=2;html=1;shape=mxgraph.flowchart.decision;whiteSpace=wrap;" parent="WIyWlLk6GJQsqaUBKTNV-1" vertex="1">
          <mxGeometry x="148.13" y="740" width="223.75" height="100" as="geometry" />
        </mxCell>
        <mxCell id="vh6xx3KwmAW9PA3KFlbd-35" style="edgeStyle=orthogonalEdgeStyle;rounded=0;orthogonalLoop=1;jettySize=auto;html=1;entryX=0.5;entryY=0;entryDx=0;entryDy=0;entryPerimeter=0;strokeWidth=2;" parent="WIyWlLk6GJQsqaUBKTNV-1" source="vh6xx3KwmAW9PA3KFlbd-26" target="vh6xx3KwmAW9PA3KFlbd-34" edge="1">
          <mxGeometry relative="1" as="geometry" />
        </mxCell>
        <mxCell id="vh6xx3KwmAW9PA3KFlbd-54" style="edgeStyle=orthogonalEdgeStyle;rounded=0;orthogonalLoop=1;jettySize=auto;html=1;entryX=0.5;entryY=1;entryDx=0;entryDy=0;strokeWidth=2;" parent="WIyWlLk6GJQsqaUBKTNV-1" source="vh6xx3KwmAW9PA3KFlbd-40" target="vh6xx3KwmAW9PA3KFlbd-52" edge="1">
          <mxGeometry relative="1" as="geometry" />
        </mxCell>
        <mxCell id="vh6xx3KwmAW9PA3KFlbd-40" value="return full path&lt;div&gt;return code 0&lt;/div&gt;" style="shape=parallelogram;perimeter=parallelogramPerimeter;whiteSpace=wrap;html=1;fixedSize=1;strokeWidth=2;" parent="WIyWlLk6GJQsqaUBKTNV-1" vertex="1">
          <mxGeometry x="450" y="760" width="120" height="60" as="geometry" />
        </mxCell>
        <mxCell id="vh6xx3KwmAW9PA3KFlbd-42" value="next node on&amp;nbsp;&lt;div&gt;the linked list&lt;/div&gt;" style="rounded=0;whiteSpace=wrap;html=1;strokeWidth=2;" parent="WIyWlLk6GJQsqaUBKTNV-1" vertex="1">
          <mxGeometry x="50" y="660" width="90" height="50" as="geometry" />
        </mxCell>
        <mxCell id="vh6xx3KwmAW9PA3KFlbd-48" style="edgeStyle=orthogonalEdgeStyle;rounded=0;orthogonalLoop=1;jettySize=auto;html=1;entryX=0;entryY=0.5;entryDx=0;entryDy=0;entryPerimeter=0;strokeWidth=2;" parent="WIyWlLk6GJQsqaUBKTNV-1" source="vh6xx3KwmAW9PA3KFlbd-42" target="vh6xx3KwmAW9PA3KFlbd-24" edge="1">
          <mxGeometry relative="1" as="geometry">
            <Array as="points">
              <mxPoint x="95" y="560" />
            </Array>
          </mxGeometry>
        </mxCell>
        <mxCell id="vh6xx3KwmAW9PA3KFlbd-53" style="edgeStyle=orthogonalEdgeStyle;rounded=0;orthogonalLoop=1;jettySize=auto;html=1;entryX=0;entryY=0.5;entryDx=0;entryDy=0;strokeWidth=2;" parent="WIyWlLk6GJQsqaUBKTNV-1" source="vh6xx3KwmAW9PA3KFlbd-49" target="vh6xx3KwmAW9PA3KFlbd-52" edge="1">
          <mxGeometry relative="1" as="geometry">
            <mxPoint x="640" y="560" as="targetPoint" />
          </mxGeometry>
        </mxCell>
        <mxCell id="vh6xx3KwmAW9PA3KFlbd-49" value="return 1" style="shape=parallelogram;perimeter=parallelogramPerimeter;whiteSpace=wrap;html=1;fixedSize=1;strokeWidth=2;" parent="WIyWlLk6GJQsqaUBKTNV-1" vertex="1">
          <mxGeometry x="430" y="530" width="120" height="60" as="geometry" />
        </mxCell>
        <mxCell id="vh6xx3KwmAW9PA3KFlbd-52" value="end" style="rounded=1;whiteSpace=wrap;html=1;fontSize=12;glass=0;strokeWidth=2;shadow=0;" parent="WIyWlLk6GJQsqaUBKTNV-1" vertex="1">
          <mxGeometry x="610" y="540" width="120" height="40" as="geometry" />
        </mxCell>
      </root>
    </mxGraphModel>
  </diagram>
</mxfile>
